/* XPM */
static char *_24b6a3b72ea4b66ef8eb27046fe1cda[] = {
/* columns rows colors chars-per-pixel */
"64 64 114 2 ",
"   c #444444",
".  c #464646",
"X  c #484848",
"o  c #494949",
"O  c #4B4B4B",
"+  c #4C4C4C",
"@  c gray30",
"#  c #4E4E4E",
"$  c gray31",
"%  c #505050",
"&  c #515151",
"*  c gray32",
"=  c #535353",
"-  c gray33",
";  c #555555",
":  c #565656",
">  c gray34",
",  c #585858",
"<  c gray35",
"1  c #5A5A5A",
"2  c #5B5B5B",
"3  c gray36",
"4  c #5D5D5D",
"5  c gray37",
"6  c #5F5F5F",
"7  c #606060",
"8  c gray38",
"9  c #626262",
"0  c gray39",
"q  c #646464",
"w  c #656565",
"e  c gray40",
"r  c #676767",
"t  c #686868",
"y  c DimGray",
"u  c #6A6A6A",
"i  c gray42",
"p  c #6C6C6C",
"a  c #6D6D6D",
"s  c gray43",
"d  c #6F6F6F",
"f  c gray44",
"g  c #717171",
"h  c #727272",
"j  c gray45",
"k  c #747474",
"l  c gray46",
"z  c #767676",
"x  c #777777",
"c  c gray47",
"v  c #797979",
"b  c gray48",
"n  c #7B7B7B",
"m  c #7C7C7C",
"M  c gray49",
"N  c #7E7E7E",
"B  c gray50",
"V  c #808080",
"C  c #818181",
"Z  c gray51",
"A  c #838383",
"S  c #848484",
"D  c gray52",
"F  c #868686",
"G  c gray53",
"H  c #888888",
"J  c #898989",
"K  c gray54",
"L  c #8B8B8B",
"P  c gray55",
"I  c #8D8D8D",
"U  c #8E8E8E",
"Y  c gray56",
"T  c #909090",
"R  c gray57",
"E  c #929292",
"W  c #939393",
"Q  c gray58",
"!  c #959595",
"~  c gray59",
"^  c #979797",
"/  c #989898",
"(  c gray60",
")  c #9A9A9A",
"_  c #9B9B9B",
"`  c gray61",
"'  c #9D9D9D",
"]  c gray62",
"[  c #9F9F9F",
"{  c #A0A0A0",
"}  c gray63",
"|  c #A2A2A2",
" . c gray64",
".. c #A4A4A4",
"X. c #A5A5A5",
"o. c gray65",
"O. c #A7A7A7",
"+. c gray66",
"@. c #A9A9A9",
"#. c #AAAAAA",
"$. c gray67",
"%. c #ACACAC",
"&. c gray68",
"*. c #AEAEAE",
"=. c #AFAFAF",
"-. c gray69",
";. c #B1B1B1",
":. c #B2B2B2",
">. c gray70",
",. c #B4B4B4",
"<. c #B7B7B7",
"1. c #B9B9B9",
"2. c #BBBBBB",
"3. c #BCBCBC",
/* pixels */
"M 8 8 <.$.N M R *.N 8 % > h  .;.B u e *.$.N m U *.N 8 % > h  .;.B u e *.$.N m U *.N 8 % > h  .;.B u e *.$.N m U *.C r * : g ! :.",
"R e } $.P i ( ] ` / U q w { B v S w @.$.G r ` } ` / U q w { B v S w @.$.G r ` } ` / U q w { B v S w @.$.G r ` }  .W P 0 r ` R V ",
"0 / Z N x ; %.E z H A ; e q Q K e ^ v c V -  .R z H A ; e q Q K e ^ v c V -  .R z H A ; e q Q K e ^ v c V -  .R v A I 7 e h N C ",
"e i R n j # m S / x < 1 { 9 0 & < h W C a < N D / x < 1 { 9 0 & < h W C a < N D / x < 1 { 9 0 & < h W C a < N D W j < ;  .1 r < ",
"[ X.< ; 1 4 a k & & ..{ m V r t ' { * ; > : r b & & ..{ m V r t ' { * ; > : r b & & ..{ m V r t ' { * ; > : r b & ; X.X.m V t g ",
"{ c x @.) { w , r 1.} z T B Z d *.A v X.+.@.e , r 1.} z T B Z d *.A v X.+.@.e , r 1.} z T B Z d *.A v X.+.@.e , p <.X.x W A m d ",
"v F 0 Q G v D q 1 s v T F Y 8 3 w F r ) B N S 3 1 s v T F Y 8 3 w F r ) B N S 3 1 s v T F Y 8 3 w F r ) B N S 3 7 8 B E A R 4 : ",
"N k f 9 % # : C $.A 2 s g , 3 , G v g = ; @ 1 A $.A 2 s g , 3 , G v g = ; @ 1 A $.A 2 s g , 3 , G v g = ; @ 1 A @.G , i g : 6 t ",
"w +.@.} S 1 >.U ..o.Y r { P y 3 u ` 3.%.c > >.~ ..o.Y r { P y 3 u ` 3.%.c > >.~ ..o.Y r { P y 3 u ` 3.%.c > >.~ | @.Q t [ A i 7 ",
"5 G G S G @ q v +.$.v s : 8 #.=., n H A P # , l +.$.v s : 8 #.=., n H A P # , l +.$.v s : 8 #.=., n H A P # , l $.@.s d , r $.| ",
"= 2 G M : 2 a 0 0 N C % 0 @.o.J 2 3 C l & 7 g 0 0 N C % 0 @.o.J 2 3 C l & 7 g 0 0 N C % 0 @.o.J 2 3 C l & 7 g 0 6 B B : 8 O.o.D ",
"& 1 3 6 8  .+.S g $ , q #.H P m = 7 < 2 < @.o.S g $ , q #.H P m = 7 < 2 < @.o.S g $ , q #.H P m = 7 < 2 < @.o.S f ; 4 w %.Z Y V ",
"e ' / ) : x o.Q { o.e e | C H < 6 ' ] ^ : N | E { o.e e | C H < 6 ' ] ^ : N | E { o.e e | C H < 6 ' ] ^ : N | E | *.w 8 #.V H 2 ",
"[ %.R D r r & 4 c N C 9 x L c 1 .. .E B g r % e c N C 9 x L c 1 .. .E B g r % e c N C 9 x L c 1 .. .E B g r % e h S M 0 n L j , ",
"9 Y [ F f z n q q 1 Z 2 d > $ j < Q } x h b b 6 q 1 Z 2 d > $ j < Q } x h b b 6 q 1 Z 2 d > $ j < Q } x h b b 6 8 2 M 6 d > # p ",
"H + z S B : t { v v 5 9 $.%.6 c R & h ~ B * t | v v 5 9 $.%.6 c R & h ~ B * t | v v 5 9 $.%.6 c R & h ~ B * t | M x 8 w +.o.r z ",
"c 4 y =.+.Z k +.o.I 3 X > d O.%.B 1 a  .%.S s X.o.I 3 X > d O.%.B 1 a  .%.S s X.o.I 3 X > d O.%.B 1 a  .%.S s X.{ I 1 O , d | ;.",
"U 0 } -.Z e ..E @.G P h e ' C V H g #.[ L p #.E @.G P h e ' C V H g #.[ L p #.E @.G P h e ' C V H g #.[ L p #.E %.J L p e ..A k ",
"p ) Z C N -  .~ v P V $ r i Q V w ( C Z b $ O.R v P V $ r i Q V w ( C Z b $ O.R v P V $ r i Q V w ( C Z b $ O.R M D C $ 0 4 ^ I ",
": 0 ! B h = S C P n - <  .3 q - 1 t W C s : D V P n - <  .3 q - 1 t W C s : D V P n - <  .3 q - 1 t W C s : D V H n < 1 o.8 e . ",
"{ +.> ; < : i k * - &.o.b B r r _ o.@ > % > y k * - &.o.b B r r _ o.@ > % > y k * - &.o.b B r r _ o.@ > % > y k - - o.| b Z r a ",
"{ z v +.} #.0 2 i -.[ k Q G B g ;.G b | @.+.q 1 i -.[ k Q G B g ;.G b | @.+.q 1 i -.[ k Q G B g ;.G b | @.+.q 1 u 2.X.v R C l h ",
"v K 4 P D x S 9 2 u n T V L 5 1 0 I 8 ] m M A 8 2 u n T V L 5 1 0 I 8 ] m M A 8 2 u n T V L 5 1 0 I 8 ] m M A 8 1 y c R G Q 5 * ",
"N c d u #   5 V #.D 8 p f 1 1 5 L x t > ; o = S #.D 8 p f 1 1 5 L x t > ; o = S #.D 8 p f 1 1 5 L x t > ; o = S $.V 0 u a : 9 w ",
"w +.@.} S 1 >.U ..o.Y r { P y 3 u ` 3.%.c > >.~ ..o.Y r { P y 3 u ` 3.%.c > >.~ ..o.Y r { P y 3 u ` 3.%.c > >.~ | @.Q t [ A i 7 ",
"5 G G S G @ q v +.$.v s : 8 #.=., n H A P # , l +.$.v s : 8 #.=., n H A P # , l +.$.v s : 8 #.=., n H A P # , l $.@.s d , r $.| ",
"= 2 G M : 2 a 0 0 N C % 0 @.o.J 2 3 C l & 7 g 0 0 N C % 0 @.o.J 2 3 C l & 7 g 0 0 N C % 0 @.o.J 2 3 C l & 7 g 0 6 B B : 8 O.o.D ",
"& 1 3 6 8  .+.S g $ , q #.H P m = 7 < 2 < @.o.S g $ , q #.H P m = 7 < 2 < @.o.S g $ , q #.H P m = 7 < 2 < @.o.S f ; 4 w %.Z Y V ",
"e ' / ) : x o.Q { o.e e | C H < 6 ' ] ^ : N | E { o.e e | C H < 6 ' ] ^ : N | E { o.e e | C H < 6 ' ] ^ : N | E | *.w 8 #.V H 2 ",
"[ %.R D r r & 4 c N C 9 x L c 1 .. .E B g r % e c N C 9 x L c 1 .. .E B g r % e c N C 9 x L c 1 .. .E B g r % e h S M 0 n L j , ",
"9 Y [ F f z n q q 1 Z 2 d > $ j < Q } x h b b 6 q 1 Z 2 d > $ j < Q } x h b b 6 q 1 Z 2 d > $ j < Q } x h b b 6 8 2 M 6 d > # p ",
"H + z S B : t { v v 5 9 $.%.6 c R & h ~ B * t | v v 5 9 $.%.6 c R & h ~ B * t | v v 5 9 $.%.6 c R & h ~ B * t | M x 8 w +.o.r z ",
"c 4 y =.+.Z k +.o.I 3 X > d O.%.B 1 a  .%.S s X.o.I 3 X > d O.%.B 1 a  .%.S s X.o.I 3 X > d O.%.B 1 a  .%.S s X.{ I 1 O , d | ;.",
"U 0 } -.Z e ..E @.G P h e ' C V H g #.[ L p #.E @.G P h e ' C V H g #.[ L p #.E @.G P h e ' C V H g #.[ L p #.E %.J L p e ..A k ",
"p ) Z C N -  .~ v P V $ r i Q V w ( C Z b $ O.R v P V $ r i Q V w ( C Z b $ O.R v P V $ r i Q V w ( C Z b $ O.R M D C $ 0 4 ^ I ",
": 0 ! B h = S C P n - <  .3 q - 1 t W C s : D V P n - <  .3 q - 1 t W C s : D V P n - <  .3 q - 1 t W C s : D V H n < 1 o.8 e . ",
"{ +.> ; < : i k * - &.o.b B r r _ o.@ > % > y k * - &.o.b B r r _ o.@ > % > y k * - &.o.b B r r _ o.@ > % > y k - - o.| b Z r a ",
"{ z v +.} #.0 2 i -.[ k Q G B g ;.G b | @.+.q 1 i -.[ k Q G B g ;.G b | @.+.q 1 i -.[ k Q G B g ;.G b | @.+.q 1 u 2.X.v R C l h ",
"v K 4 P D x S 9 2 u n T V L 5 1 0 I 8 ] m M A 8 2 u n T V L 5 1 0 I 8 ] m M A 8 2 u n T V L 5 1 0 I 8 ] m M A 8 1 y c R G Q 5 * ",
"N c d u #   5 V #.D 8 p f 1 1 5 L x t > ; o = S #.D 8 p f 1 1 5 L x t > ; o = S #.D 8 p f 1 1 5 L x t > ; o = S $.V 0 u a : 9 w ",
"w +.@.} S 1 >.U ..o.Y r { P y 3 u ` 3.%.c > >.~ ..o.Y r { P y 3 u ` 3.%.c > >.~ ..o.Y r { P y 3 u ` 3.%.c > >.~ | @.Q t [ A i 7 ",
"5 G G S G @ q v +.$.v s : 8 #.=., n H A P # , l +.$.v s : 8 #.=., n H A P # , l +.$.v s : 8 #.=., n H A P # , l $.@.s d , r $.| ",
"= 2 G M : 2 a 0 0 N C % 0 @.o.J 2 3 C l & 7 g 0 0 N C % 0 @.o.J 2 3 C l & 7 g 0 0 N C % 0 @.o.J 2 3 C l & 7 g 0 6 B B : 8 O.o.D ",
"& 1 3 6 8  .+.S g $ , q #.H P m = 7 < 2 < @.o.S g $ , q #.H P m = 7 < 2 < @.o.S g $ , q #.H P m = 7 < 2 < @.o.S f ; 4 w %.Z Y V ",
"e ' / ) : x o.Q { o.e e | C H < 6 ' ] ^ : N | E { o.e e | C H < 6 ' ] ^ : N | E { o.e e | C H < 6 ' ] ^ : N | E | *.w 8 #.V H 2 ",
"[ %.R D r r & 4 c N C 9 x L c 1 .. .E B g r % e c N C 9 x L c 1 .. .E B g r % e c N C 9 x L c 1 .. .E B g r % e h S M 0 n L j , ",
"9 Y [ F f z n q q 1 Z 2 d > $ j < Q } x h b b 6 q 1 Z 2 d > $ j < Q } x h b b 6 q 1 Z 2 d > $ j < Q } x h b b 6 8 2 M 6 d > # p ",
"H + z S B : t { v v 5 9 $.%.6 c R & h ~ B * t | v v 5 9 $.%.6 c R & h ~ B * t | v v 5 9 $.%.6 c R & h ~ B * t | M x 8 w +.o.r z ",
"c 4 y =.+.Z k +.o.I 3 X > d O.%.B 1 a  .%.S s X.o.I 3 X > d O.%.B 1 a  .%.S s X.o.I 3 X > d O.%.B 1 a  .%.S s X.{ I 1 O , d | ;.",
"U 0 } -.Z e ..E @.G P h e ' C V H g #.[ L p #.E @.G P h e ' C V H g #.[ L p #.E @.G P h e ' C V H g #.[ L p #.E %.J L p e ..A k ",
"p ) Z C N -  .~ v P V $ r i Q V w ( C Z b $ O.R v P V $ r i Q V w ( C Z b $ O.R v P V $ r i Q V w ( C Z b $ O.R M D C $ 0 4 ^ I ",
": 0 ! B h = S C P n - <  .3 q - 1 t W C s : D V P n - <  .3 q - 1 t W C s : D V P n - <  .3 q - 1 t W C s : D V H n < 1 o.8 e . ",
"{ +.> ; < : i k * - &.o.b B r r _ o.@ > % > y k * - &.o.b B r r _ o.@ > % > y k * - &.o.b B r r _ o.@ > % > y k - - o.| b Z r a ",
"{ z v +.} #.0 2 i -.[ k Q G B g ;.G b | @.+.q 1 i -.[ k Q G B g ;.G b | @.+.q 1 i -.[ k Q G B g ;.G b | @.+.q 1 u 2.X.v R C l h ",
"v K 4 P D x S 9 2 u n T V L 5 1 0 I 8 ] m M A 8 2 u n T V L 5 1 0 I 8 ] m M A 8 2 u n T V L 5 1 0 I 8 ] m M A 8 1 y c R G Q 5 * ",
"N c d u #   5 V #.D 8 p f 1 1 5 L x t > ; o = S #.D 8 p f 1 1 5 L x t > ; o = S #.D 8 p f 1 1 5 L x t > ; o = S $.V 0 u a : 9 w ",
"w @.O.] G 1 1.E &.] W i ` J w 9 w _ ,.%.l < =.W &.] W i ` J w 9 w _ ,.%.l < =.W &.] W i ` J w 9 w _ ,.%.l < =.W &. .R s ( K q q ",
"5 Z I S G + 1 l | %.f l % 9 *.#.2 M H M E = 4 m | %.f l % 9 *.#.2 M H M E = 4 m | %.f l % 9 *.#.2 M H M E = 4 m  .#.a c + q +.{ ",
"= 5 N S & 6 h 9 8 b A # 6 #.%.D : 6 H z $ 8 g 3 8 b A # 6 #.%.D : 6 H z $ 8 g 3 8 b A # 6 #.%.D : 6 H z $ 8 g 3 9 V Z * 0 *.O.C ",
"< 6 4 3 9 o.&.Z f - 4 w ;.H L n > 1 : , 7 X.&.F f - 4 w ;.H L n > 1 : , 7 X.&.F f - 4 w ;.H L n > 1 : , 7 X.&.F p = 2 u +.A P m ",
"y / ! ^ 5 B / ! *.| t 7 +.M ~ * i ) ( ' ; Z ! ! *.| t 7 +.M ~ * i ) ( ' ; Z ! ! *.| t 7 +.M ~ * i ) ( ' ; Z ! ! @.} u 5 | B I 1 ",
"W ;.! A i 5 q 3 p L N 6 h H z 8 Q ..) K t 4 3 w p L N 6 h H z 8 Q ..) K t 4 3 w p L N 6 h H z 8 Q ..) K t 4 3 w a R b y l J m 2 ",
"b F [ H f Z v q 1 7 l 7 x ; ; r f H ~ N x Z x 0 1 7 l 7 x ; ; r f H ~ N x Z x 0 1 7 l 7 x ; ; r f H ~ N x Z x 0 1 5 k 7 z 5 + 0 ",
"B : x G V - e | H j 3 i ` { y M n 3 b G B % r  .H j 3 i ` { y M n 3 b G B % r  .H j 3 i ` { y M n 3 b G B % r  .G x < f )  .a A "
};
