/* XPM */
static char *_eb12bfab16f472fcdda9dd377ed5194[] = {
/* columns rows colors chars-per-pixel */
"64 64 151 2 ",
"   c #4E3F1E",
".  c #563419",
"X  c #59361B",
"o  c #53391E",
"O  c #5C3A1E",
"+  c #633B1D",
"@  c #533D25",
"#  c #5E3D23",
"$  c #6E3625",
"%  c #633E22",
"&  c #683F21",
"*  c #6A3128",
"=  c #384F00",
"-  c #45450F",
";  c #424A0E",
":  c #42530C",
">  c #4D4516",
",  c #4D4E12",
"<  c #454E1F",
"1  c #55431B",
"2  c #5A441F",
"3  c #534A1F",
"4  c #4B521E",
"5  c #50531A",
"6  c #6C411F",
"7  c #494023",
"8  c #5A4727",
"9  c #534228",
"0  c #5C412B",
"q  c #594E2E",
"w  c #525121",
"e  c #664226",
"r  c #6B4223",
"t  c #624129",
"y  c #6A4629",
"u  c #6F4A2D",
"i  c #734C2D",
"p  c #794F2F",
"a  c #75552E",
"s  c #7F512D",
"d  c #6E4D32",
"f  c #744E31",
"g  c #7E4F33",
"h  c #754F38",
"j  c #6B5C35",
"k  c #6F533E",
"l  c #6E5C38",
"z  c #765136",
"x  c #7B5435",
"c  c #7E5834",
"v  c #74543B",
"b  c #7B563A",
"n  c #7C593D",
"m  c #6E7C3E",
"M  c #715644",
"N  c #7C5643",
"B  c #745B45",
"V  c #7E5C42",
"C  c #7A5E48",
"Z  c #776B45",
"A  c #7B6C4F",
"S  c #815736",
"D  c #835836",
"F  c #81523B",
"G  c #835A3B",
"H  c #8E623F",
"J  c #835641",
"K  c #825E41",
"L  c #885F41",
"P  c #856045",
"I  c #8A6344",
"U  c #84644B",
"Y  c #8C664B",
"T  c #876F4D",
"R  c #8E694C",
"E  c #906543",
"W  c #966946",
"Q  c #99624E",
"!  c #936B4B",
"~  c #996E4D",
"^  c #977049",
"/  c #99714D",
"(  c #8D6D55",
")  c #8C6B5A",
"_  c #9F6652",
"`  c #946F52",
"'  c #9B6D54",
"]  c #967154",
"[  c #997253",
"{  c #977458",
"}  c #9B7659",
"|  c #9B795E",
" . c #A0644C",
".. c #A0724E",
"X. c #A47C5D",
"o. c #A87F5F",
"O. c #957A65",
"+. c #A37F62",
"@. c #B67E65",
"#. c #B17E69",
"$. c #C07F6B",
"%. c #54932A",
"&. c #639D2C",
"*. c #609932",
"=. c #709B3F",
"-. c #54A033",
";. c #5FA73B",
":. c #5BA93C",
">. c #61A339",
",. c #69AB3F",
"<. c #798543",
"1. c #699B44",
"2. c #7B9A4E",
"3. c #7B9057",
"4. c #7A9C50",
"5. c #79A443",
"6. c #74AB42",
"7. c #75A44A",
"8. c #7CAF4D",
"9. c #62B343",
"0. c #6AB242",
"q. c #6DB14E",
"w. c #6FBC4B",
"e. c #7BBB4D",
"r. c #7EB759",
"t. c #7FA260",
"y. c #868E5D",
"u. c #AB805E",
"i. c #93A654",
"p. c #81B256",
"a. c #83BC51",
"s. c #8DB459",
"d. c #82BE5E",
"f. c #908D64",
"g. c #A58164",
"h. c #AB8364",
"j. c #A9866B",
"k. c #AD886C",
"l. c #B18766",
"z. c #B38866",
"x. c #B28A6B",
"c. c #BB8F6C",
"v. c #B28D72",
"b. c #BB9475",
"n. c #82A060",
"m. c #95AB6D",
"M. c #95BC63",
"N. c #89C355",
"B. c #8CCC5A",
"V. c #A3C473",
"C. c #A2C47A",
/* pixels */
"0.e.w.>.:.5.;.5.a.w.9.6.9.-.%.9.0.e.w.>.:.5.;.5.a.w.,.6.9.-.%.9.0.e.w.>.:.5.>.5.a.w.,.6.9.-.%.9.0.e.w.>.:.7.>.5.a.w.,.6.9.-.%.9.",
"r.q.p.i.d.= 7.1.&.B.N.6.*.7.=.7.r.q.p.i.d.= 7.1.*.B.N.6.&.8.=.7.r.q.p.i.d.= 7.1.&.B.N.6.*.8.=.7.r.q.p.i.d.= 7.1.&.B.N.6.*.8.=.7.",
"m.; C.2.4., t.1 8.s.M.V.: <.m 5 m.; C.2.4., t.> 8.s.M.V.: <.m 4 m.; C.2.2., t.> 8.s.M.V.: <.m 4 m.; C.2.4., t.3 8.s.M.V.= <.m 4 ",
"t Z 4 - n.1   t 3.w y.w l 8 q d 0 Z 4 - n.1 1 t 3.w y.< l 8 q z 0 Z 4 - n.1 9 t 3.w y.< j 8 q z t Z 4 - n.1   % 3.w y.w l 8 q d ",
") k T h.3 ' B M   @ 9 A h ( o J ) v T h.w Q B M   @ 9 A f ( o J ) l T h.3 ' M M 7 @ 9 A f ( o J ( k T h.3 ' B N   @ 9 A h ( o J ",
"N $ R ! v Q @ * 0 z z X L c a l.N $ ( / v _ @ * t h z X L c a z.N $ ( ! n ! @ * t z z X L c c z.V $ ( ` b Q 7 * t v z O L b a l.",
"$.x z F f.S F #.h.z c.l.i ~ S W $.f x x f.F n #.j.i c.l.i / s ! @.x x g f.F F #.h.z x.l.i ! s ! @.x x x f.F F #.h.z x.z.i ~ S ^ ",
"a D l.l.[ Q j c [ 2 Y [ b x _ ` a G l.@.]  .j x [ 8 Y ' v x _ ` x G x.@.]  .j x ] 2 ! [ b x _ ` x D h.@./ Q j c [ 2 E [ b x Q ' ",
"W x x ( Z ( k 0 c Y X.u V v 0 k W x x ! C ) k 0 c Y X.i Z V # k W x x ! Z ( M 0 b E X.u J n % k W x b R C ( M 0 x ! X.u V B # k ",
"S ! + n b X 0 v b G i n g.j.n ( c R % b b X t v x G u N +.j.v ` c Y % n b X % h v K i N f.j.N ( c R 6 b b X # z b G i N +.j.n ( ",
"x ' x x.X.G h./ O j.j.y Y ~ g.x c [ x x.X.G h./ # j.k.y I ` u.z c ] x z.X.G h.~ O j.j.y Y ] u.x x ] x x.X.K h.~ O j.j.e Y ` o.z ",
"R b x ! W l.D W U ( O.f y R s 6 R b x ! ! z.D W U ( | f y Y S 6 ! b x ! ! l.S W U ( | d e W x 6 ! b x W ! l.D W A ( | f y E c 6 ",
"b + ~ b W H c.s v n u b a F z.u.b + [ S W H c.s v N d b z S l.u.b % ~ F ! H c.s v B d b i G l.u.b + ~ b ~ H c.S v V u b i G l.u.",
"c ] f G z x ! R b e g.e c +.[ ~ x / a b x x ! R v e +.e x o.] ~ x ` a b x x ~ Y b e +.e c o.' ~ x ] a G f b ! Y b e g.% c +.[ ~ ",
"~ G + g.P X V 0 u.k.S I c b [ ` ! G O g.P X V 0 u.l.S I b b [ ' ! F + g.P X n 8 u.l.c I b b ` [ ~ G + +.L X n 0 u.h.S I c b ' [ ",
"! i x.` U C O.M ..H S z ] Y n O ~ i l.] U C O.M ..E D i ] R n O ~ p x.] U C O.M ..E S p ] R n O ~ i x.` U Z O.M ..I D z ] Y n O ",
"x.! ! z P j.] ( g G + S D z.p l.x.! ! z L j.` ( g G + x S z.p z.x.! ! z P k.` ] p G + S F x.p l.x.! ! z P k.` ` a G + x S z.a l.",
"G R r z f { +.O G +...f #.Y & + G Y e x f { +.O G +...x #.Y + + G R r z a { O.O G o.' f h.I & + G R e z z ] g.X G o.[ x #.I & + ",
"o.c x e j.b z n j.P h n % % v.h +.S x e j.b b n j.P h n % % v.h u.b x e h.b b N k.L x n % % v.b o.b x e h.b z n j.P z b % % v.g ",
"[ R h.x { O n j.] P N R b k.Y v ] ! h.x ] O n j.] P N Y b k.Y v [ R h.x { O n g.{ L N Y b k.Y v [ ! h.x [ 0 n j.] P N R N j.Y b ",
"[ x [ h.6 T n K R % N P N ` # b / x / j.e T n K ( % n L N ` + b / x [ j.% R n V ( % n L n ` # b ! x [ g.e R b G ( % N L b ` # v ",
"z + R } u { X % % h z X z K z v.x + R } i ] X % % h h X z K z v.z + W { f ] X % # h h X h L h v.x + R } f ] X 0 % h b X v K h v.",
"l.n f z h.v n g.x.g x.x.c L G I k.G i z j.b N g.x.g x.x.c L G Y k.G a z g.v K +.z.x x.x.x G L I k.G z x j.z V g.x.f x.x.x L G E ",
"c i b.g.] R n b ! & E ~ S G ! ~ x i b.g.] R b b ! & E ~ S G W ] c i b.+.' ` v n ! r I ' S G ! ~ c i b.+.` R b b W & E ~ S G W ' ",
"W x x ( C ( k 0 c W | u V n 0 k W x x R P ( M 0 c ! | i V v 0 k ! x c ( V ( M @ c Y X.i V n # k W x x ( Z ) M 0 F Y X.u V B # k ",
"c ! + b b . 0 k z K i n g.j.n ( c ! % n b X 0 k z G i n g.j.n ( S Y & n b . t v x V u n g.j.b ( x W % n v . # b b G i n +.j.n ( ",
"c ] c x.X.H h.~ O j.j.y Y ~ o.x c ] x x.X.G h.~ O j.j.y Y ~ o.x c ' c z.o.G j.` # j.j.y Y ! g.x x [ x x.X.L h.~ O j.j.y Y [ +.x ",
"! b x ! W z.D W A ( | z y E S + R b x ! ! z.S W U ( | d y Y s 6 R b x Y W z.D W U ( | f y R c 6 ! b x W W l.D W U ` O.f y E x 6 ",
"b + ~ b ~ H c.s v b d b f D l.l.b + ` S ! H c.x v B f n f S l.h.b + [ S ~ H c.p v v d b f S z.h.b + ` b ! H c.p v n u b i G l.u.",
"x ` f G x x ! R v e g.% c o.] ~ c ] i G x c ! R b e +.% c o.[ ~ x ' a b x x ~ E b e g.e S o.[ ~ x ' a G h x ! ! v e g.e c +.[ ~ ",
"~ G + +.K X V 0 o.l.S I b n ` ` ! G + +.K X V # u.l.S I b b ` ] ~ b + g.K o V # u.l.S I b b ` ` ~ G + +.L X n t u.x.S I c b ' [ ",
"~ i k.` U C O.M ..E D p [ Y n O ~ i x.` U C O.M / E D a ' R n O / i k.] U C O.M ..E D p ] R n O ! i x.` U Z O.M / E S z ] Y n X ",
"k.! ! z P j.( ] p G + S F z.f z.x.! ! z I k.] ] p G + x D z.p z.x.! ! z P j.] ( f G + S S z.p l.x.! ! z P j./ ` p G + x S z.p z.",
"G R r z z ] g.O G o.' f h.W & + G R e x a { O.O G o.[ x #.Y & + G R r z f { g.O J +...g #.E & + G ! e z z ] f.+ G X.[ x #.I & + ",
"u.c x e g.b z n k.L v n % % v.h o.b x e g.b z n k.L z n % % v.h o.c z e j.b z n j.K v n # % v.h o.b x e h.b z n k.K h N % % v.z ",
"[ R h.x } O n j.] L J R v k.Y v [ ! h.x { O n j.{ L N Y b j.Y v [ ! h.x { O b j.{ L G Y b k.Y M [ ! h.x [ 0 n j.' L N R v k.Y b ",
"[ x / j.% R n K ( % N P n ` # b ~ x [ j.% R n V R % N P V ` # b [ x [ h.6 T n K ( % n P N ` % n ~ z [ g.% R b V ` % N L N ` # v ",
"z + ! { f ] X # # h g X h L h v.z + W { f ] X # # h h X x J h v.z + R } d ] X % + h h X z G h v.x + ! } f { X # # h v X z K g v.",
"k.G a z j.x N +.x.x k.x.x G L I k.G a z h.b N +.x.x x.x.S G L I l.G i z j.b n g.x.x x.x.c L G I k.G f x j.z V g.x.f x.x.c G L I ",
"c i b.g.` ( n b W r E ~ S G ! ~ c i b.+.` ( n b W r E ~ D G Y / b i b.g.` R b n ! r E ~ S F ! ` c i b.g.` R b n W & E ~ S G ! ' ",
"W x x T V ) M 0 c Y X.u V V # M ! x S ( K ( M 0 c ! | i V b # k W x x R P ) k 0 x ! X.u V v 0 k W x c ( C ( M 0 G W X.u V v 0 k ",
"c ! 6 b b . 0 k x K i n +.j.b ` S Y + b b X 0 k z V i n g.j.b ( c ! e b b X 0 v b n u n +.j.n ] c ! + b b X 0 z g K i N g.j.n ( ",
"x ' x x.o.G h./ O j.j.y Y ` o.x x ] x x.X.G h.~ # j.j.y Y ` o.x x [ x x.o.G h.~ O j.j.y Y ~ o.x c ] x x.| H h./ # #.j.e Y / g.x ",
"Y n x ! ! z.S W U ` O.f y Y c + ! b x ! ! z.S W U ( | f y R x 6 R b x W W l.D W U ( | d y Y c 6 ! b x W ! h.S W A ( | d y R s 6 ",
"b + / S ~ H c.s v B u b i G z.h.b O ~ F ~ H c.s v V d b p D l.h.b O ~ c ! H c.p v B f b f F l.u.b % ~ b W H c.s v n d b i G l.u.",
"c ] f b x x ! Y b e +.% c u./ ! x [ f G x x ! R x e +.% c o.] ~ x [ z c x x ! Y b e g.% c u.[ ~ x ] i G x x ! R b e g.% b u.] ~ ",
"~ n + g.J X n 0 u.l.S I b b ` ] ~ G % +.K X n 0 o.l.G I b b ` ' / G + g.K O V 8 u.l.c I b b ] ` ~ G + g.P o V # u.k.S I b b [ [ ",
"~ i k.[ U Z O.M ..E D f [ R n O ~ i k.` U Z O.v ..E S i [ R n O ! i x.] U C O.M ..E S a [ R n O ~ i k.` U C O.M ..E S a [ Y n X ",
"z.! ! z P k./ R g G + S S z.p z.x.! ! z P k.` ` a G + S b z.f z.x.! ! z P j.` ` p G + S F z.p x.x.! ! z P j.` ` p G + x S z.g z.",
"G ! r v z ] f.+ G +.[ f #.I & + G R r z z { g.O G X...f #.E & + G R r z f { +.2 G o.' f h.E % + G R r z z { f.+ G o.} g +.E & + ",
"o.b x e j.z z n k.L h b % % v.x o.b x e g.b x n k.P h n % % v.h X.b x e j.b z n k.L h n % % v.g +.c x e h.b b n #.L v n % % v.h ",
"[ R h.x ] e n j.' K N ( v k.Y v ` ! h.x { O n j.` P N Y b k.U b [ ! h.x { O b j.] L K Y v k.U b ] R h.x ] # n g.` P N Y v k.Y b ",
"~ x ` g.e R b V ( % N L N ` # v ` x [ h.e R b G ` % N I n ` # b / x [ j.e Y v n ( % N L n ` # b / x [ g.% R b P ( % J U N ` # v ",
"x + ! } f ] X # + h b X x K h v.x + R { z ] X 0 # h h X h K x v.z + ! { z ] X e % h h X h K h v.x + ! } f { X # + z h X z K g v.",
"k.b x x j.b V g.x.g x.x.D G L L k.G f x j.z V g.x.x z.x.x L G I k.G a x j.z N +.x.x x.x.S L G I x.G f x j.v n g.x.f x.x.x G L I ",
"c i b.+.` R b b ! & E ~ D G ! ' c i b.g.~ T b b Y r W ~ F G W [ c i b.+.[ R b b W 6 Y ' D G ! ` x i b.g.` R n b ! r E ~ D G ! ' ",
"W x x ` Z ( M 0 x Y | i V V # k W x x ! C ) k 0 x W X.u V V # k Y x c R V ( M @ c Y X.i V n # M E x c R C ( k 0 S E | i V v 0 v ",
"x ! % b v . 0 z b G i G +.j.v ( c ! % n b X t v b K u n +.j.b ( S ! e b n X 0 k x V u n +.j.b ` c ! e b b X t k b L u V +.j.n ( ",
"x ] c x.X.J h./ O j.j.y Y ` g.x c ` x x.X.G h.] O j.j.y Y ` o.x x ' x k.o.G h.] # j.j.y Y ` o.x c [ x x.X.G h./ X j.j.y Y ` g.z ",
"! b x ! W l.D W U ( O.f y W x 6 R b x ! W l.D W A ( | f y Y S 6 ! b x W W z.D W U ( | f y R c + R b x ! ! l.D W U ) | f y E c 6 ",
"b + ~ G ! H c.s v n d b i G l.u.b + ` S ! H c.s v N d b f G l.u.x O ~ S ~ H c.s v v d b f D l.h.b + ~ b ! H c.s z V d b p F z.u.",
"x ] i G x x ! R b e g.% c +.[ ~ x ' f G x x ! W b % g.% c u.[ ~ x [ z G x x ! Y b e g.e S o.[ ~ x ] a G z x ! ! b e g.% c +.[ / ",
"! G + g.P X n 0 u.k.S I b b ' [ ~ G % +.K X V 0 u.l.S I b b ` ` ~ b + g.J X n 0 u.l.S I b b ` ` ! G + +.P X n 0 +.l.S I b b [ [ ",
"~ i k.` U C O.M ..H S a [ Y n O W i k.` U Z O.M / E S p ] Y n O ~ a k.] U Z O.M ..E D p ] R n O ~ i x.` U C O.M ..E D a [ Y n X "
};
