/* XPM */
static char *_c88db4785124245c538bbe7b65f2a78[] = {
/* columns rows colors chars-per-pixel */
"64 64 185 2 ",
"   c #250501",
".  c #280700",
"X  c #270901",
"o  c #2A0B04",
"O  c #270708",
"+  c #2D0C0A",
"@  c #310E0A",
"#  c #2F100A",
"$  c #311007",
"%  c #33130D",
"&  c #2E1113",
"*  c #351512",
"=  c #391714",
"-  c #371913",
";  c #3B1B15",
":  c #341619",
">  c #37181D",
",  c #3D1D1A",
"<  c #36231B",
"1  c #3D211B",
"2  c #3C1E22",
"3  c #3E2123",
"4  c #3D2922",
"5  c #401A17",
"6  c #411E1B",
"7  c #43221D",
"8  c #48231F",
"9  c #452521",
"0  c #492622",
"q  c #452A24",
"w  c #4B2A25",
"e  c #472A2B",
"r  c #4D2C29",
"t  c #522D26",
"y  c #512E2B",
"u  c #4A3027",
"i  c #45332B",
"p  c #4D322C",
"a  c #4F392E",
"s  c #463025",
"d  c #53322E",
"f  c #5A342E",
"g  c #52382F",
"h  c #4B2D30",
"j  c #542F31",
"k  c #4D3332",
"l  c #4E3B34",
"z  c #553431",
"x  c #5B3633",
"c  c #553A34",
"v  c #5C3A35",
"b  c #5B363A",
"n  c #563A3A",
"m  c #5D3D39",
"M  c #53363A",
"N  c #60352F",
"B  c #603733",
"V  c #613B36",
"C  c #633D3A",
"Z  c #693F3C",
"A  c #5B4037",
"S  c #56413A",
"D  c #5D423C",
"F  c #64423D",
"G  c #69423E",
"H  c #5C3E43",
"J  c #553A43",
"K  c #663F42",
"L  c #5E4142",
"P  c #5F4A43",
"I  c #644442",
"U  c #6A4542",
"Y  c #664A45",
"T  c #6C4A45",
"R  c #64464A",
"E  c #6C4749",
"W  c #6C4C49",
"Q  c #65484D",
"!  c #714946",
"~  c #70474B",
"^  c #724C4A",
"/  c #6E504D",
"(  c #73524D",
")  c #79534F",
"_  c #6D4D51",
"`  c #744E51",
"'  c #745552",
"]  c #7A5553",
"[  c #765956",
"{  c #7B5955",
"}  c #745559",
"|  c #7D555A",
" . c #77595A",
".. c #7B5C5A",
"X. c #7C605C",
"o. c #7D5E61",
"O. c #7F5561",
"+. c #7F6162",
"@. c #7E676D",
"#. c #805755",
"$. c #805A57",
"%. c #825C5B",
"&. c #83615E",
"*. c #88615F",
"=. c #815762",
"-. c #845C64",
";. c #865F6B",
":. c #846463",
">. c #8B6462",
",. c #876863",
"<. c #8C6966",
"1. c #85656A",
"2. c #8B636C",
"3. c #84686D",
"4. c #8C6B6B",
"5. c #906A67",
"6. c #926D6C",
"7. c #8F706D",
"8. c #95726E",
"9. c #8B6571",
"0. c #8D6B74",
"q. c #8D6E79",
"w. c #936D75",
"e. c #926D79",
"r. c #8F7179",
"t. c #8E7578",
"y. c #947372",
"u. c #9A7573",
"i. c #9B7A76",
"p. c #93737B",
"a. c #9B737B",
"s. c #9C7B7B",
"d. c #967975",
"f. c #A07775",
"g. c #A07A77",
"h. c #A27E7B",
"j. c #A87F7D",
"k. c #A5837E",
"l. c #A9847F",
"z. c #957581",
"x. c #997581",
"c. c #957A82",
"v. c #9B7B83",
"b. c #9D7D8A",
"n. c #A17F8D",
"m. c #9F8086",
"M. c #9D828C",
"N. c #9D888F",
"B. c #9F8792",
"V. c #A38383",
"C. c #AA8583",
"Z. c #A78A86",
"A. c #AD8986",
"S. c #A2838B",
"D. c #A8898F",
"F. c #A9868A",
"G. c #B08986",
"H. c #B28D8B",
"J. c #B88F8D",
"K. c #B6918D",
"L. c #B9938F",
"P. c #A48592",
"I. c #A48D95",
"U. c #A98C92",
"Y. c #A68C9A",
"T. c #AB8C9B",
"R. c #B68F92",
"E. c #AD9294",
"W. c #AD9299",
"Q. c #B49391",
"!. c #BA9592",
"~. c #BC9995",
"^. c #B1929B",
"/. c #BD9A98",
"(. c #AC94A2",
"). c #B39AA3",
"_. c #BA9CA3",
"`. c #B39DAC",
"'. c #B5A1AD",
"]. c #B9A4AD",
"[. c #B4A2B1",
"{. c #BAA5B6",
"}. c #C09896",
"|. c #C29C9B",
" X c #C2A5A9",
/* pixels */
"T.P.n.n.x.w.2.2.=.` #.) ^ #.~ ! E E U U K U Z C K K B K H H `.[.{.[.(.(.T.n.b.x.x.e.9.;.=.| ) ] ` ^ ^ ^ ! ~ U K K K C C C V C C ",
"S.b.z.e.9.;.=.=.#.K ~ ~ ~ K Z Z Z K C V C v b x b j j b M J `.`.[.`.(.Y.P.n.x.e.9.;.=.| ` ~ ~ ~ ! U K K K Z V V V V b b b j x j ",
"P.b.e.e.w.;.-.=.#.~ ~ ~ ! G Z Z Z Z Z V C b x b B b j B k J '.[.`.(.Y.B.b.b.z.q.9.;.-.%.| ~ ~ ^ ! K K Z Z C B V C B B b x b x j ",
"b.z.e.e.2.2.;.=.#.~ ~ ^ ! ! Z Z Z Z V Z C C B B b B j B z P ].'.(.(.Y.B.b.v.e.e.9.9.;.=.] ^ ! ! ! ! Z K G Z V Z C C C B B B j B ",
"z.q.0.9.9.2.2.-.#.! ) G ! G Z G Z V V V V V N N B B B j j K ).(.(.(.Y.b.z.e.e.w.9.9.2.-.] ) ) ! ~ Z Z G Z Z V Z C B B B B j B j ",
"q.9.e.w.w.e.a.w.$.#.) G Z Z Z G Z V V V V V V N B N N N b K I.Y.(.(.Y.c.q.9.w.0.w.e.a.4.%.) ) G ! G G G G Z V V B C B B B f N B ",
"q.0.r.p.w.w.f.w.*.#.#.) G G Z G Z Z Z V Z Z N F B B N N b H m.B.T.Y.M.z.0.p.w.w.w.a.a.5.*.#.) ) ! G G G G G Z F Z C V V B B B B ",
"r.p.c.v.w.p.a.w.>.%.$.#.G G N F Z Z V Z V V G N B N N f C b c.N.Y.I.c.q.w.a.v.a.w.a.a.u.>.%.$.) ! G Z Z V V V G C V B B B B f N ",
"c.v.m.m.k.8.7.8.5.*.{ ( G F F G G F F N A G A N V f N f x R z.I.T.n.z.z.p.v.m.m.k.7.4.7.<.*.&.( G G G G G V F V V C V V V V v f ",
"v.m.S.V.d.7.&.,.&.&.[ ( G A A F N G G G G N F N F B B v b L r.B.T.b.z.q.v.S.m.m.d.4.3.,.&.X.) ! G G N F V V G F C C V V V V V V ",
"v.m.v.p.4.+.{ [ ( ( G / G G A G A V N F F A N G F V B B v K r.b.P.z.q.q.v.S.c.y.4.&. .[ ( / ! T F A N F F V F V C C V C F V v f ",
"S.m.d.3.+. .{ [ ( G ( G G A A N F N F F G A G N V B v V b H t.M.P.b.z.v.S.m.y.1.+. .' [ ( / ! / G A F V N V V F V V V V V V V V ",
"S.p.3.o.X.{ [ { ( ( G G A A N A V V V F V A V V V V B V b I v.M.z.b.P.D.S.p.3.+... .' ' ' T G G A A N N V V V V V F V V V V V f ",
"s.3.o...{ { [ G ( G G G G N N N N V N A N V v N F V N V x L b.P.b.P.^.U.v.4.+... . .[ ' ' T F F F N A N f V V N N N V A v V V v ",
"0.o. . .{ ( ( ) T Y G A A A A N N A V V V v N A V V V V x I U.Y.^.^.^.S.y.o. . .[ } ( ' ' T F G F A A N f V V N A N v f V N f v ",
" .R I R A A A A T P G G G G A A F A v V v N V V f V f V x R W.)._.^.v.4.} R I L D H m m U F C F G G A N V V V V V v V f V V A f ",
"n h 3 3 5 : > 6 q e f m F G E U C C F F f f v f v V N N F F ]./._.b.3.Q M h 2 2 2 = = 6 w r f V N F G G C C C m v v f V V V V v ",
"2 2 & & + O O + % % 7 d v F Z C G C V F f v F A A V A f v F ].).n.@.Q h 3 2 : & @     + % % 1 r F F F G U F F F B v v V V v V f ",
": : : & + O + + X   % 0 y d v V G V V v f v A f A f f f d F  XW.o.J e 2 : : : & & @ + @ + o = 0 g f V F Z V v A v v B V v f f f ",
"2 3 e 2 2 = = & # % = , 6 w V U C f f f d d g t u 8 t t 8 A /.c.J e 2 2 2 2 2 2 > = * * @ + % , ; w C G C x z z d d y y u t 8 u ",
"e h r 3 > > = = - - * % = y U ! A f g t 8 8 7 ; - % % ; ; p W.@.J e j M h e e e 5 = = = = % % = % d U U C V v r 8 8 7 1 = % = ; ",
"M M j w 0 0 3 5 ; - % % 6 v ! Z A A t t 8 1 - $ X     o o 4 E.@.} ~ } _ m M h y y 0 9 3 7 ; % % 7 v ! G V V z w 8 7 % # o . . o ",
"m M r e w r 0 6 ; % % ; d ! ) U G N t t 1 - % $ X X   X o 1 E.t.9.1.;.} H j r 0 r r 0 2 = = % % d T ) ! C B z 0 7 ; % # X X   o ",
"z e , , 3 3 6 = * # % 8 C { *.#.G A g s 7 < - $ # % # % # 1 W.N.4.1.o.H j r 2 > 0 2 5 = = % = 5 F [ *.{ U C z r 1 ; % $ # # # % ",
"z d e w , , ; * % % * x #.*.>.$.G G f t 7 ; - - - - 1 1 1 w Q.v.1.1.} R b z e 9 1 ; - - # + 1 g { *.<.] U C x w 7 ; - % ; 1 1 1 ",
"m n z r 9 7 1 * % w f ( 5.6.>.$.G G f u 7 ; - - : ; 7 q w p E.y.3.+._ H H n M j 1 7 1 ; = 7 f ( <.6.<.{ U C x y 7 7 ; - - ; 7 7 ",
"x z r e w 9 7 7 w T { 6.j.f.*.#.^ G B t 9 7 ; - ; ; 1 7 7 l U.y.2.o.E b x M r e 8 w 7 7 d F { 8.l.g.5.] ^ I B y 7 7 ; - - ; 1 7 ",
"C b j r y d z C { <.u.l.J.j.*.#.! U V f y w 1 ; 1 ; < - ; r C.1._ E H x b b j r p g d v ) 7.i.l.G.k.5.] ^ Z V j t s 7 ; ; 1 < 1 ",
":. .^ U R U ( $.8.i.C.J.G.u.>.#.U Z C B b j w 1 7 7 1 1 1 s s. .^ ` ] #.-.$.^ W F G ( %.<.g.A.G.G.f.>.#.~ Z V V V d w 7 7 7 7 1 ",
"s.>.| ] ( ( ] ] ( 5.C.J.G.u.*.#.Z C C C C v y 0 9 9 8 7 8 g V.3.u.n.V.n.s.<.] ' ( ( { ' ( >.G.J.C.f.*.) K V V Z C v d w 7 7 7 8 ",
"u.] ~ ^ ^ ^ G f f >.G.!.G.f.*.) Z Z B V B v z y r 0 w 8 u v H.C.F.R.!.H.u.] E U ( ( U y v >.J.L.G.g.*.^ Z C C B v x f w 8 8 s 8 ",
"6.E C ~ ^ U y @ G i.L.!.J.j.>.! Z Z B x v x x y M r r 8 t v D.F.R.|.|.G.6.^ U ! E U w ; V g.}.J.L.j.>.! Z C C x x x f v v g t s ",
">.W E U K r @ e 8.K.~.~.L.k.{ F F b x x x y y V v f u x a D k.Z.R./.!.C.,.^ W W I z + w 8.K.!.|.L.k.{ F b F v f f r d v C x d x ",
":.T U C x 5 , E A.!.~.~.L.i.' C F C v v z t r x V v v A c P k.m.K.R.C.u...W U C r , * W H.~.L.!.K.k.) A C F v x x r w x v v v v ",
"] I C b 0 * 6 ] k.k.l.A.A.<.U f v v v b x y w y v V A G A E k.k.H.A.y.:.` U C M q + , { k.l.l.G.l.<.G f m F V v v y 0 w z F C b ",
"W C b 0 , , 9 U U U T ..,.) x d C v v v v y w t d v v F D / V.m.F.k.>.' E C v r 9 = 9 F T G ^ &.<.) f g v C x v v d 0 0 y v F C ",
"K F v w 6 3 t x w 7 = d U F d x v d y d d d w 7 8 g V F A W k.k.h.u.:.` U b c r , 7 r d 8 = ; t / A d f v x y y x d r 8 0 d V F ",
"b c j r w r b V v r 8 d T U d y y 9 6 w p f y 0 8 w v F F W d.y.h.8...^ C z y r 1 r n F v t 8 f ! F d y y 0 7 w y d y 0 8 r v F ",
"x r w r y z m U T U F T ' T y 0 8 5 6 t d f v t 8 8 g F D / i.d.s.6.] I x w r w p z F G U T G ) ) U f 0 8 6 7 0 y d f r 0 w d C ",
"y 0 6 0 y v I F F ! ^ T T C y t w 0 0 y d z f d t 7 t v c / k.k.h.<.^ V j 3 8 0 d c I v F G U ^ T F p 0 w w 0 w f x x y 0 0 y v ",
"9 , , 9 h x n y w y f x x y t w t w t y x x x z t 7 8 g A G V.V.s.,.E c 9 1 9 9 r b x r r y z v x t w t r q r p d d v d 0 7 8 c ",
"6 > , q y z y w 6 8 7 8 0 7 7 7 8 8 0 w w y y p s 7 8 g F ! k.k.s.:.Y z 7 , 1 9 r b j w 6 5 5 6 0 8 8 7 8 8 7 w y d f d w 8 7 f ",
"> - 1 r z d j r 0 6 6 = = 6 6 5 5 , ; 6 8 w w r 8 7 7 d v T k.k.y...R d > * 1 r y y j r w 5 6 6 5 5 ; 5 1 ; , , 0 0 r r r 8 7 r ",
"* * 9 z x z b x y 0 7 5 6 7 6 5 5 5 5 7 7 9 9 q 8 7 5 u v T k.i.,.[ I w * * 9 n x b b z y 0 8 6 6 6 7 5 7 ; 1 1 7 6 8 8 w 7 , 0 ",
"% > e z z r y r t w 0 7 8 w 0 8 7 w q q q q 7 1 8 7 - 8 v W h.s.4.' m 9 & - e m b y r w w w 0 5 0 t 0 8 8 8 q w q 7 9 7 8 1 ; 9 ",
"- 6 r y 0 6 , = 6 6 6 6 7 0 w 8 7 8 w w w w w q 8 5 % 7 v W s.u.7.' z , - 7 r r 0 3 5 > 6 8 0 5 6 8 0 6 7 7 q w p w w q 7 1 = 7 ",
"; 9 e 9 > = 6 6 = 7 7 , = 6 7 6 7 5 7 7 7 7 w i 7 ; % 7 v W y.,.&./ z 1 > 9 r 9 , 5 6 5 5 8 3 ; 5 6 6 6 , 7 7 7 9 q w q 7 ; - 1 ",
", q 0 , * 6 y b x v v t 7 8 q 8 8 7 1 ; < 1 q w 7 5 = 7 c U <.&.' W c 9 ; q r 1 * 6 j b j b B y 6 0 t 8 7 5 1 1 ; , q q q ; - 1 ",
", r y 3 = 0 C ^ ~ ^ ) F c F G f d r r q % o ; p q 1 ; q v / 4...E I b 6 , t y 6 5 t G ) ( G ( G N K U f r d w 8 - # ; w w ; - q ",
"9 z v y 0 8 j ~ ^ ) ] / U { ..I D A m d ; o * 7 8 ; ; u c T ,.[ E C j 8 3 j C f 0 8 f G ( ( { / ! #.' G F G m c % o % w q ; ; r ",
"z b U U M 6 r V ^ W ^ T T { { F T F D d - o - q 8 - 1 g F R X.' / D j e y C U E f 6 t A G ( / / ^ ] ^ T T T D f % + * q q ; 1 d ",
"M C W ] U y t b C F U U F / F f F z p 7 * % 9 d 8 ; 5 g D U X.' ' F r r y C W ( K f u A F F F G U T G v c c w q - - 7 p 9 - 1 d ",
"z m ( { ] E I C F F T / T F D g w 7 1 1 ; 8 p f s 1 7 v F A ..[  .I p p x F W  .#.E F C F F T G T T F d w q 1 1 1 9 z z w ; 7 c ",
"n T ' ..&...^ U F I Y T T Y Y F r 7 - , q g n v 8 7 u v v A { ' X.T n p m W ] :.:...' T F F T Y U U U m d 7 ; 1 8 d m z 9 1 r F ",
"F / ..X...{ ^ I D A m m A A A F c q 1 9 r c A c 8 7 a v c c ( / ..' m d m / { ....{ ^ U c v c D A v A m c q 1 1 p c A p 7 8 d m ",
"m /  ...{ ' W F c p u d z d p c d r w f c F v t 1 s g A v d / W X.[ D p m ( } { { ' E F v g g f c d d d c u w c c F m w 1 q d c ",
"D W ' / W / T m c z d d d d p d g g g A A A g u 9 r c c i l Y / [  .I p n / ' / W W W I n p d d g p i d g p c D F D c s 7 s g a ",
"U / [ W Y W I n d d p p p w p z c g c F A F g p 9 p l l 4 i Y Y '  .W D P / ' Y T Y I n d r p d p u p c c c c D A A g s s s a a ",
"I / ' Y Y Y I c q q 8 8 7 7 w d g g g c A A a u z z l i 4 l Y Y Y / Y P P [ ' Y T Y D c 9 9 9 q 7 7 q g c g c A A c g p s a S s ",
"Y ' ' / W E P c q 7 1 1 , 1 q p c c A c A g p u k z p 4 < i P S S I Y D Y ' [ / / Q L c r 1 1 1 1 1 q p g c c c c g p u a a a 1 ",
"W [  .[ / ' Y D c p q 7 7 q p z c A A A c c p u r k q 4 < i P n n P P I Y [ [ [ ' / Q D c p q q q q u g c c A D n c p i i i q 1 ",
"Y ' X.X.[ X.[ Y T A i q u u p c c n n n c k r q e q 4 < < i S S p z n S P ' X.X.[ [ ' / Y c p q i u p c c A A c n z p q s q 1 < ",
"D Y [ [ [ [ ' / Y D c a d a d c n n c n c k e q 1 < < < < i S l p r p c D / [ [ [ ' / W Y D c g d c g c S c c c c p 9 3 4 4 < < ",
"D Y ' / Y Y Y D Y F D D D c A D D D A D c n p w i e 4 i i l P S n z c S L Y / / Q Y Y I P F D c A c A c D D D c D c p 4 q q s p "
};
