/* XPM */
static char *_68d1dc1645549b59dc2bd0cdc9f3657[] = {
/* columns rows colors chars-per-pixel */
"64 64 87 1 ",
"  c #C3BD89",
". c #C3BE89",
"X c #C4BF8A",
"o c #C5C08B",
"O c #C6C28D",
"+ c #C7C38D",
"@ c #C8C48E",
"# c #C8C48F",
"$ c #CAC790",
"% c #CAC890",
"& c #CBC991",
"* c #CBC992",
"= c #CBCA92",
"- c #CCCB93",
"; c #CDCB93",
": c #CFCD95",
"> c #CFCE95",
", c #CFCF95",
"< c #CFD095",
"1 c #D0D096",
"2 c #D1D097",
"3 c #D2D398",
"4 c #D3D39A",
"5 c #D3D498",
"6 c #D3D59A",
"7 c #D3D49B",
"8 c #D4D59A",
"9 c #D4D69A",
"0 c #D4D69B",
"q c #D4D49C",
"w c #D5D79C",
"e c #D6D79E",
"r c #D5D89D",
"t c #D7DA9D",
"y c #D6D89E",
"u c #D7DB9E",
"i c #D8DC9E",
"p c #D8DC9F",
"a c #D8DCA0",
"s c #D9DDA0",
"d c #D9DFA1",
"f c #DAE0A3",
"g c #DDE3A3",
"h c #E0E5A5",
"j c #E1E2AD",
"k c #E1E8A8",
"l c #E1E9A9",
"z c #E4EBAB",
"x c #E3ECAB",
"c c #E5ECAB",
"v c #E5EDAB",
"b c #E5EEAB",
"n c #E5EEAC",
"m c #E6EFAC",
"M c #E6F0AD",
"N c #E7F2AF",
"B c #E8EBB6",
"V c #E7F3B0",
"C c #EAF7B4",
"Z c #EBF8B4",
"A c #ECF8B4",
"S c #EDF8B6",
"D c #EEF8B6",
"F c #EEF3BC",
"G c #EFF4BC",
"H c #EFF5BD",
"J c #EFF8B8",
"K c #EFF8BB",
"L c #F1F6BB",
"P c #F1F8BD",
"I c #F2F8BD",
"U c #F0F5C0",
"Y c #F3F5C6",
"T c #F6F7C5",
"R c #F4F6C7",
"E c #F4F7C7",
"W c #F5F7C7",
"Q c #F2F8C0",
"! c #F3F9C3",
"~ c #F5F9C5",
"^ c #F7F8C5",
"/ c #F7F8C6",
"( c #F5F8C8",
") c #F6F9C9",
"_ c #F7F9C9",
"` c #F7F9CA",
"' c #F8F8CB",
/* pixels */
"-))eq^/''GyU`($X-))eq^/''GyU`($X-))eq^/''GyU`($X-))eq^/''GyU`($X",
"EIkk5fknkh8ZAkM&EIkk5fknkh8ZAkM&EIkk5fknkh8ZAkM&EIkk5fknkh8ZAkM&",
")kMMMjkzMMnJAZlu)kMMMjkzMMnJAZlu)kMMMjkzMMnJAZlu)kMMMjkzMMnJAZlu",
")ZkMV~<icM~JkZZa)ZkMV~<icM~JkZZa)ZkMV~<icM~JkZZa)ZkMV~<icM~JkZZa",
"TkQPJ~CMK~kkMMZ=TkQPJ~CMK~kkMMZ=TkQPJ~CMK~kkMMZ=TkQPJ~CMK~kkMMZ=",
"YMNkkk!JCkkMcMn-YMNkkk!JCkkMcMn-YMNkkk!JCkkMcMn-YMNkkk!JCkkMcMn-",
";nSkpMMZZZM>tz;#;nSkpMMZZZM>tz;#;nSkpMMZZZM>tz;#;nSkpMMZZZM>tz;#",
"+w6oo#o+O+@06#@ +w6oo#o+O+@06#@ +w6oo#o+O+@06#@ +w6oo#o+O+@06#@ ",
")YY77_Y*.&R(BFH))YY77_Y*.&R(BFH))YY77_Y*.&R(BFH))YY77_Y*.&R(BFH)",
"ZM9gcKCNOYLMKxkkZM9gcKCNOYLMKxkkZM9gcKCNOYLMKxkkZM9gcKCNOYLMKxkk",
"JDbMK!ZC#WMK!kkMJDbMK!ZC#WMK!kkMJDbMK!ZC#WMK!kkMJDbMK!ZC#WMK!kkM",
"J!J~!kkM+`Z!knzMJ!J~!kkM+`Z!knzMJ!J~!kkM+`Z!knzMJ!J~!kkM+`Z!knzM",
"Zkll~MkcOYZ!kmmJZkll~MkcOYZ!kmmJZkll~MkcOYZ!kmmJZkll~MkcOYZ!kmmJ",
"kk,uCZKCwWMZM%1Jkk,uCZKCwWMZM%1Jkk,uCZKCwWMZM%1Jkk,uCZKCwWMZM%1J",
"CvkpsMMrr:MZdJ~!CvkpsMMrr:MZdJ~!CvkpsMMrr:MZdJ~!CvkpsMMrr:MZdJ~!",
"+42X3o@O w#@XX@++42X3o@O w#@XX@++42X3o@O w#@XX@++42X3o@O w#@XX@+",
"-))eq^/''GyU`($X-))eq^/''GyU`($X-))eq^/''GyU`($X-))eq^/''GyU`($X",
"EIkk5fknkh8ZAkM&EIkk5fknkh8ZAkM&EIkk5fknkh8ZAkM&EIkk5fknkh8ZAkM&",
")kMMMjkzMMnJAZlu)kMMMjkzMMnJAZlu)kMMMjkzMMnJAZlu)kMMMjkzMMnJAZlu",
")ZkMV~<icM~JkZZa)ZkMV~<icM~JkZZa)ZkMV~<icM~JkZZa)ZkMV~<icM~JkZZa",
"TkQPJ~CMK~kkMMZ=TkQPJ~CMK~kkMMZ=TkQPJ~CMK~kkMMZ=TkQPJ~CMK~kkMMZ=",
"YMNkkk!JCkkMcMn-YMNkkk!JCkkMcMn-YMNkkk!JCkkMcMn-YMNkkk!JCkkMcMn-",
";nSkpMMZZZM>tz;#;nSkpMMZZZM>tz;#;nSkpMMZZZM>tz;#;nSkpMMZZZM>tz;#",
"+w6oo#o+O+@06#@ +w6oo#o+O+@06#@ +w6oo#o+O+@06#@ +w6oo#o+O+@06#@ ",
")YY77_Y*.&R(BFH))YY77_Y*.&R(BFH))YY77_Y*.&R(BFH))YY77_Y*.&R(BFH)",
"ZM9gcKCNOYLMKxkkZM9gcKCNOYLMKxkkZM9gcKCNOYLMKxkkZM9gcKCNOYLMKxkk",
"JDbMK!ZC#WMK!kkMJDbMK!ZC#WMK!kkMJDbMK!ZC#WMK!kkMJDbMK!ZC#WMK!kkM",
"J!J~!kkM+`Z!knzMJ!J~!kkM+`Z!knzMJ!J~!kkM+`Z!knzMJ!J~!kkM+`Z!knzM",
"Zkll~MkcOYZ!kmmJZkll~MkcOYZ!kmmJZkll~MkcOYZ!kmmJZkll~MkcOYZ!kmmJ",
"kk,uCZKCwWMZM%1Jkk,uCZKCwWMZM%1Jkk,uCZKCwWMZM%1Jkk,uCZKCwWMZM%1J",
"CvkpsMMrr:MZdJ~!CvkpsMMrr:MZdJ~!CvkpsMMrr:MZdJ~!CvkpsMMrr:MZdJ~!",
"+42X3o@O w#@XX@++42X3o@O w#@XX@++42X3o@O w#@XX@++42X3o@O w#@XX@+",
"-))eq^/''GyU`($X-))eq^/''GyU`($X-))eq^/''GyU`($X-))eq^/''GyU`($X",
"EIkk5fknkh8ZAkM&EIkk5fknkh8ZAkM&EIkk5fknkh8ZAkM&EIkk5fknkh8ZAkM&",
")kMMMjkzMMnJAZlu)kMMMjkzMMnJAZlu)kMMMjkzMMnJAZlu)kMMMjkzMMnJAZlu",
")ZkMV~<icM~JkZZa)ZkMV~<icM~JkZZa)ZkMV~<icM~JkZZa)ZkMV~<icM~JkZZa",
"TkQPJ~CMK~kkMMZ=TkQPJ~CMK~kkMMZ=TkQPJ~CMK~kkMMZ=TkQPJ~CMK~kkMMZ=",
"YMNkkk!JCkkMcMn-YMNkkk!JCkkMcMn-YMNkkk!JCkkMcMn-YMNkkk!JCkkMcMn-",
";nSkpMMZZZM>tz;#;nSkpMMZZZM>tz;#;nSkpMMZZZM>tz;#;nSkpMMZZZM>tz;#",
"+w6oo#o+O+@06#@ +w6oo#o+O+@06#@ +w6oo#o+O+@06#@ +w6oo#o+O+@06#@ ",
")YY77_Y*.&R(BFH))YY77_Y*.&R(BFH))YY77_Y*.&R(BFH))YY77_Y*.&R(BFH)",
"ZM9gcKCNOYLMKxkkZM9gcKCNOYLMKxkkZM9gcKCNOYLMKxkkZM9gcKCNOYLMKxkk",
"JDbMK!ZC#WMK!kkMJDbMK!ZC#WMK!kkMJDbMK!ZC#WMK!kkMJDbMK!ZC#WMK!kkM",
"J!J~!kkM+`Z!knzMJ!J~!kkM+`Z!knzMJ!J~!kkM+`Z!knzMJ!J~!kkM+`Z!knzM",
"Zkll~MkcOYZ!kmmJZkll~MkcOYZ!kmmJZkll~MkcOYZ!kmmJZkll~MkcOYZ!kmmJ",
"kk,uCZKCwWMZM%1Jkk,uCZKCwWMZM%1Jkk,uCZKCwWMZM%1Jkk,uCZKCwWMZM%1J",
"CvkpsMMrr:MZdJ~!CvkpsMMrr:MZdJ~!CvkpsMMrr:MZdJ~!CvkpsMMrr:MZdJ~!",
"+42X3o@O w#@XX@++42X3o@O w#@XX@++42X3o@O w#@XX@++42X3o@O w#@XX@+",
"-))eq^/''GyU`($X-))eq^/''GyU`($X-))eq^/''GyU`($X-))eq^/''GyU`($X",
"EIkk5fknkh8ZAkM&EIkk5fknkh8ZAkM&EIkk5fknkh8ZAkM&EIkk5fknkh8ZAkM&",
")kMMMjkzMMnJAZlu)kMMMjkzMMnJAZlu)kMMMjkzMMnJAZlu)kMMMjkzMMnJAZlu",
")ZkMV~<icM~JkZZa)ZkMV~<icM~JkZZa)ZkMV~<icM~JkZZa)ZkMV~<icM~JkZZa",
"TkQPJ~CMK~kkMMZ=TkQPJ~CMK~kkMMZ=TkQPJ~CMK~kkMMZ=TkQPJ~CMK~kkMMZ=",
"YMNkkk!JCkkMcMn-YMNkkk!JCkkMcMn-YMNkkk!JCkkMcMn-YMNkkk!JCkkMcMn-",
";nSkpMMZZZM>tz;#;nSkpMMZZZM>tz;#;nSkpMMZZZM>tz;#;nSkpMMZZZM>tz;#",
"+w6oo#o+O+@06#@ +w6oo#o+O+@06#@ +w6oo#o+O+@06#@ +w6oo#o+O+@06#@ ",
")YY77_Y*.&R(BFH))YY77_Y*.&R(BFH))YY77_Y*.&R(BFH))YY77_Y*.&R(BFH)",
"ZM9gcKCNOYLMKxkkZM9gcKCNOYLMKxkkZM9gcKCNOYLMKxkkZM9gcKCNOYLMKxkk",
"JDbMK!ZC#WMK!kkMJDbMK!ZC#WMK!kkMJDbMK!ZC#WMK!kkMJDbMK!ZC#WMK!kkM",
"J!J~!kkM+`Z!knzMJ!J~!kkM+`Z!knzMJ!J~!kkM+`Z!knzMJ!J~!kkM+`Z!knzM",
"Zkll~MkcOYZ!kmmJZkll~MkcOYZ!kmmJZkll~MkcOYZ!kmmJZkll~MkcOYZ!kmmJ",
"kk,uCZKCwWMZM%1Jkk,uCZKCwWMZM%1Jkk,uCZKCwWMZM%1Jkk,uCZKCwWMZM%1J",
"CvkpsMMrr:MZdJ~!CvkpsMMrr:MZdJ~!CvkpsMMrr:MZdJ~!CvkpsMMrr:MZdJ~!",
"+42X3o@O w#@XX@++42X3o@O w#@XX@++42X3o@O w#@XX@++42X3o@O w#@XX@+"
};
