/* XPM */
static char *f32ffde8087542acfc5c6797322249e6[] = {
/* columns rows colors chars-per-pixel */
"64 64 256 2 ",
"   c #2A160C",
".  c #35160D",
"X  c #271B16",
"o  c #3C1D15",
"O  c #381D18",
"+  c #2C0E03",
"@  c #2D231B",
"#  c #2A2017",
"$  c #32251D",
"%  c #3A2519",
"&  c #392C16",
"*  c #192734",
"=  c #29272A",
"-  c #342B23",
";  c #3A2C23",
":  c #352B2A",
">  c #3B332A",
",  c #2C2D34",
"<  c #272837",
"1  c #362C36",
"2  c #2C323A",
"3  c #34333B",
"4  c #3C3A3D",
"5  c #393436",
"6  c #2D302A",
"7  c #231D28",
"8  c #431D1A",
"9  c #471E19",
"0  c #422117",
"q  c #44231B",
"w  c #4B241D",
"e  c #44291D",
"r  c #4B291F",
"t  c #4D2515",
"y  c #53251D",
"u  c #57291A",
"i  c #492A13",
"p  c #4D2321",
"a  c #4C2B23",
"s  c #482A28",
"d  c #542522",
"f  c #532B23",
"g  c #582925",
"h  c #483528",
"j  c #54342B",
"k  c #543A2D",
"l  c #5A352B",
"z  c #433432",
"x  c #433B33",
"c  c #433C3B",
"v  c #493638",
"b  c #5B3C33",
"n  c #573837",
"m  c #442F35",
"M  c #633A2E",
"N  c #633C33",
"B  c #643A39",
"V  c #612E33",
"C  c #3B413F",
"Z  c #4A4327",
"A  c #4C423C",
"S  c #47433A",
"D  c #5C4235",
"F  c #5D4B3C",
"G  c #574638",
"H  c #63443B",
"J  c #67463B",
"K  c #6B4C3E",
"L  c #1A2E49",
"P  c #1C314D",
"I  c #272D43",
"U  c #24334C",
"Y  c #2B3648",
"T  c #3B3C43",
"R  c #363746",
"E  c #2C3B53",
"W  c #263956",
"Q  c #353C53",
"!  c #302F41",
"~  c #453C43",
"^  c #573D44",
"/  c #453D54",
"(  c #6A3C41",
")  c #3C4447",
"_  c #384659",
"`  c #28445C",
"'  c #2C4465",
"]  c #374867",
"[  c #3B5565",
"{  c #3E5376",
"}  c #434344",
"|  c #4B4A45",
" . c #44454A",
".. c #4C4B4C",
"X. c #484747",
"o. c #524543",
"O. c #544B43",
"+. c #534B4A",
"@. c #5C4846",
"#. c #4F524C",
"$. c #56524E",
"%. c #5C534B",
"&. c #5C5344",
"*. c #4A4B54",
"=. c #574A52",
"-. c #4B5357",
";. c #575655",
":. c #6C4C43",
">. c #654A46",
",. c #734B44",
"<. c #734B49",
"1. c #635243",
"2. c #6C5B4C",
"3. c #68554A",
"4. c #74544B",
"5. c #7B544B",
"6. c #725B4D",
"7. c #79564A",
"8. c #685A55",
"9. c #745C53",
"0. c #7B5D53",
"q. c #775A57",
"w. c #6B4E52",
"e. c #596159",
"r. c #6D635C",
"t. c #6A6558",
"y. c #746355",
"u. c #7C6255",
"i. c #7B635B",
"p. c #7C6B5C",
"a. c #74655B",
"s. c #7B7359",
"d. c #77684F",
"f. c #495567",
"g. c #585A63",
"h. c #48536A",
"j. c #665B63",
"k. c #4A6675",
"l. c #576674",
"z. c #59636A",
"x. c #6B6665",
"c. c #7A6C63",
"v. c #766965",
"b. c #7E7462",
"n. c #7A746C",
"m. c #646875",
"M. c #7A7979",
"N. c #717176",
"B. c #865C56",
"V. c #82574C",
"C. c #83645B",
"Z. c #8B655D",
"A. c #836A5D",
"S. c #876558",
"D. c #837A5C",
"F. c #936A5E",
"G. c #846C63",
"H. c #8C6D63",
"J. c #866966",
"K. c #936C65",
"L. c #837464",
"P. c #8B7366",
"I. c #837B64",
"U. c #83736B",
"Y. c #8C756A",
"T. c #857C6B",
"R. c #8B7B6C",
"E. c #8B7B67",
"W. c #93756B",
"Q. c #937B6D",
"!. c #97756A",
"~. c #8C7C73",
"^. c #867A76",
"/. c #937D73",
"(. c #9B7E72",
"). c #967777",
"_. c #836F74",
"`. c #A27D73",
"'. c #7A807E",
"]. c #89816E",
"[. c #888369",
"{. c #8D8372",
"}. c #8A8578",
"|. c #948374",
" X c #9A8475",
".X c #938A75",
"XX c #94847A",
"oX c #9B857A",
"OX c #948D7A",
"+X c #9C8B7B",
"@X c #9C8C77",
"#X c #9A927E",
"$X c #95937E",
"%X c #A38B7D",
"&X c #A58677",
"*X c #A3947E",
"=X c #A4836E",
"-X c #787783",
";X c #5C7987",
":X c #897A86",
">X c #957D83",
",X c #8A8885",
"<X c #9C8C83",
"1X c #958984",
"2X c #949385",
"3X c #9D9483",
"4X c #9B9489",
"5X c #9D9A8C",
"6X c #9A9788",
"7X c #9B9994",
"8X c #8E8D94",
"9X c #A48D81",
"0X c #AB8D82",
"qX c #A48C87",
"wX c #A39383",
"eX c #AB9385",
"rX c #A19985",
"tX c #A3948B",
"yX c #AC968A",
"uX c #A49B8B",
"iX c #AB9B8B",
"pX c #AC9A86",
"aX c #B39C8D",
"sX c #B49688",
"dX c #A59D92",
"fX c #AA9D92",
"gX c #A79997",
"hX c #B49F91",
"jX c #BB9D91",
"kX c #B89896",
"lX c #AD8A8E",
"zX c #A8A18C",
"xX c #ACA392",
"cX c #A8A598",
"vX c #B4A495",
"bX c #BBA394",
"nX c #B4AB9A",
"mX c #BBAB9C",
"MX c #B5A59A",
"NX c #B9B19E",
"BX c #BAA28E",
"VX c #BAACA3",
"CX c #BAB4A5",
"ZX c #ACAFA9",
"AX c #9DA193",
"SX c #C3A699",
"DX c #C2B49A",
"FX c #C6ACA2",
"GX c #C5B5A7",
"HX c #D1B6B3",
"JX c #C29995",
"KX c #C7C3BE",
"LX c #DCBEC0",
"PX c #CFD1CD",
"IX c #E6D4D3",
"UX c #EFEFEE",
/* pixels */
"#X@X#X#X#X#X#X#X#X3X3X3X3X3X4X3X3X3X#XrX#XrXrX#XzX#XzX*XzX*X3XzXAXAXAX2X5XcXZXAX2X6XAXcX5X3XtXrX7X5X5X5X5X3X3X3X#X$X#X#X@X@X#X@X",
"#X#X#X#X#X#X#X3X#X<X<X3X3X3X3X3X3X3XrX#XrX#X#X3XrXrXzX3X3X#XzXzX2X'.e.S #.e.t.e.}.2XAXzX5X3XtXdX4X5X4X6X6X6X6X3XuXuXiXrXwX*X*X#X",
"#X#X#X#X#X#X#X#X3XOX3X3X3XrX4XrX3XuXrXrXzX#XrXrX3XzXzX#X#X3XzXzXb.%.> 6 6 > S S G e.n.2X4X7XtXdXzXAX5XdX5X5X4X5X#XOX+XOX@X.X.X.X",
"3X#X3X#X3X3X3X3X3X3X3X3X3X3X4XwXrXrXrX3X#XzXrXrXrXzX3XrXzX5X.Xb.x ; - ; > - & 6 ; S t.n.3XtX5X4X7X7X5X5X4X5X3X3X3X3X3X3X*XzX*X*X",
"3X#X3X3X3X3X3X3X#X3X#XrXrX3XrXrXuXuXuXuXuXrXuXuXzX3X3XrXcX3Xt.> x n >.w.2.G v v 3.+.%.v..X$XAX$X2X2X2X2X2X2X2X3X4X4X3X3X#X3X3X#X",
"3X3X3X3X3X3X3X3X3XrX3XrX3XtXrXrXuXuXuXrXuXuXuXuXuXzX3XrXuX+XF   2.i.J.J.y.2.3.@.8.3.%.%.t.'.6X$XAX7XAXAXcXcXcXcXuXrX3X6X#X#X@X.X",
"rXrX3X3X3X3XwX4X3XrXrX#XrXrX3XrXuXiXxXuXuXuXfXuXrXdXuX4XuXuXb.n H <.:.n ( <.:.j >.8.s.t.t.t.'.'.,X}.,X,X8X2X2X6X5XdXuXuXuXuXrXrX",
"5X3X4XtX4X3X3X3X3X3X#XrXrXrXrXrXuXdXuXuXdXiXuXuX3XzXxXrXfXnXcX|.>.5.<.B 0.`.).>.>.^.vX5X'.#.C #.} X.| #.#.;.;.e.t.x.x.c.n.n.^.~.",
"3X3X5XzXcXxXzX3X3XzXzX*X$X*XzX*XzXdXxXdXuXdXxXcXuXdXdXvXvXcXuXtXC.5.B.B.5.`.lXB.>XIXFX>X'.#.#.#.#.;.#.#.X.S } S S > O.S x #.$ x ",
"o.O.O.%.8.t.s.s.I.[..X[.$X*X*XxX3XzXdXdXfXdXdXdXVXcXdXtXtXdXvXMX0XB.<.<.V ,.K.K.kXLX<X=.#.#.e.e.e.;.-.#.#.#...X.S 4 O.5 S F - &.",
"X # $ $ $ $ - > & Z Z Z Z Z Z Z y.v.b.n.^.{.OXXX1X4X5XdXcXMXMXMXFXA.B ,.l g <.J.lXHX_.^ #.e.#.) -...)  .....X.S C C } c O.S 6 v.",
"X @ $ $ # X   # S G G Z Z Z Z Z $ $ # # @ - > z A A O.%.%.8.r.a.hXF.4.4.:.N ( B.kXHX_.v | C ) C ) ) T T ) T 4 4 S } c S $.5 S ,X",
"c z ; - @ 6 Z Z D.'.D.D.'.[.D.D.OXn.3.A x > z z ; - $ # $ z O.t.E.A.K J K 4.:.( kXLX:X^ / T [ ) ) ) _  .4 2 C ) 4 } 4 } #.5 +.7X",
",Xx.v X @ Z e.s.D.D.D.D.d.[.[.[.3Xn.O.- # # @ - ; S &.a.n.~.3XtXD.[.K & h 7.,.l B.HXHXgXgX-Xl.;X-.-...) 2 2 2 C ) S 4 $.S > x.7X",
"gXM.A @ & Z d.'.'.D.D.d.D.D.D.D..Xv.o.; $ > x x > G v.^.1X7XgXnXwXrXK   r 4.D a s FXIXUXUXPXZX8X8X;X_ 2 = , 2 5 S 3 4 ;.> 5 ,X,X",
"/.w.; X & Z d.D.[.D.d.d.D.[.[.D.~.r.c - @ - : > ^.M.n.r.x.n.4XMXGXDXd.& H 7.j 0 j VXIXIXUXIXPXPXPX7X;.6 , 4 T 3 ) 5 4 ;.= 5 7X^.",
">.1.F k h F A.+XL.L.L.I.I.I.s.b.[.t.%.8.&.z x +.v.x.v.| %.M.n.v.*XF.V.V.5.5.5.J.q.hXPXPXPXPXUXZXCXZXj.: #. .=  .4 ..: ;.1 8.tX1X",
"b H D k b :.p.Q.|.E.p.2.&.2.t.y.&.| 8.1X7X}.v.n.r.x.N.$.%.x.;.%.V.M M B K :.4.0.>.0XPXPXPXPXUXZXcXZXj.X : ~ 3  .3 X.c $.> c.qX<X",
"b b D D 1.7.A.L.p.y.2.F G G &.2.8.v A x.^.n.r.8.8.x.M.8.$.8.O.@.F.B.V.5.B M j b >.tXHXZXPXKXIXZXZXPX8X: = } ~ ~ 5 ~ o.A z ~.<X<X",
"H b b H 4.u.A.A.i.E.|.@XOX.X#XiXGX1Xc.U.^.^.c.U.a.c.~.q.1.8.1.q.K V.V.V.5.5.H./.).MXnX2XZXcXKXZXVXHX1Xc 1 } ) T 4 4 ;.5 A tX<XwX",
"6.7.:.6.C.E.Q.Q.2.A. X*XeXpXiXvXXX_.U.)./.U.q.q.9.i.<XJ.9.q.:.0.J K J ,.5.W.0XjXwXFXtXn.ZXMXVXXXx.8.X.6 > T 4 T ~ 4 8.5 8.tX9XwX",
"o . + + . 0 e e h k D D G G K 3.i.q.J.).).W.J.Y.>.9.(.!.q.4.b :.B.V.,.,.7.H./.Y.~.MXoXy.CXVXgX;.o.: X 1 T T T *.} ~ +.> U.qXqXqX",
"i e 0 0 q e r e a e 0 % % % q e s s s s s f n >.n B Z.0.:.J V :.<.<.K V.K.qX/.p.q.MX|.&.hXhX Xm ;.> = ~ X. . .*...#.x v <XXXeXeX",
"8 0 q q 0 0 o o t 0 % 0 0 0 8 o 8 o p s j n l b B l :.B l B ( Z.w.( ,.q.1XqXU.A 8.MX~.h /.9XY.; +.: , T 4 ~ ;.;.=.;.: A gXY.sX*X",
"0 q t e q q t r r r r r y y y y q w w q p s l B ( >.B B ( ( q.w.n w._._.j.v.j.o.O.3X8.$ F mX>.8 | = 3 ~ 1  .g... ...z O.tXQ.jX X",
"0 e r r w w r a f a f f g d d d y f f f f f n >.n n n n ^ ( w.j._.:XgX8X:XM.v.+.) 2Xv.h >.FXq.s c = 3 T 2 ~ g.*.=.} z 8.oX XBX=X",
"0 q e w 0 q w r f f f f g g g g y u y w p f j n ^ ^ ^ ~ ~ m ~ ! R / m.-X'.8X8XN.) 6X,XO.v.HXC.m 5 = , T R  .g.*.;.c z ~.|.=XsX&X",
"0 0 q q 9 9 t w r r u r y y y y y t y q p s s j n ^ v R 1 < 7 < I ! / g.k.l.m.-.) 8X4X%.J.FXJ.s 1 , 2 T ) *.;.-.;.4 A yXP.*XsX&X",
"8 0 w w t q y w y d y u d y d u u u u u f j n v : 1 1 ! Y Y Q Q Q ' k.{ [ k.k.) [ N.'.$.v.lXi.s 5 R 3 T *.*.-.;.;.5 %.hXP.*X&X&X",
"t t r a y w r g g g g g g g g u u u t u a j v z 1 3 ! Q Q ' ' ] W ` ] ' ] k.;Xk.f.-.N.| N.lX>Xw.4  .3 R *.-.*.g...c c.qX(.*X0X&X",
"q r r y r w w g g g g g g g g g u t t i a h h 1 / _ Q E W ' ' ' ' ] { ' P ` [ [ k.Y *./ _.lXlX:X3 ) ! 2 -.f.*.x.4 } XXR.=XsX=X=X",
"o 0 q 9 9 8 t 9 y y y y y y u u u u t u k v ~ ~ R R Y U W W ' ' ' { { ' P ` k.k.l.* ! 1 m.:XlX>X, ) 2 , *.;.*.m.> o.0XF.*XsX=X=X",
"p p g p 9 9 p p g d d d d d d d u u d n m ~ R Y < ` E E U U Y ` W ' h.{ ' W ' h.U ] < ! :X:X/ ^ /  ./ T ) #.-.+.: c.XXY.%XjX*X`.",
"8 p p p p p g g p p p p p p 9 9 y d p g ~ ~ Q Q U P U E Y Y 2 Y _ ' ' ' W P W ' U Q < / :X:X( =./ /  .} X.$.%.O.z c.+XeXeX(.S.V.",
"8 p p p p p 8 p g n f f d p p g y 9 p m m 1 ! U W W P ` ` R R Y h.Q W W P L P W W W ! h.>X:X/ =.T ) } } o.$.+.} 1.q.P.(.=X7.K `.",
"8 8 8 p p 8 p 8 8 O 8 8 8 p 8 9 g g p m m ! ! U U W W U U ) Q Q ] ] W W W P P P Q R Q m.:X-Xm m c } } } | o.A > 3.i.i.A.A.7.V.`.",
". . O O 8 8 s p O O 8 8 p s q p g g m m 1 R R Q ` E U U I E *.h._ [ [ ` P I L U _ Q *.-X:Xj.c ^ X.+.=.+.+.+.n s w.Y.).!.`.!.V.K ",
"O . .     .     O O O O % % % ; o O O ; 1 3 ! Y Y U U U Q _ h.l._ f._ ) L L I I Q Q g.:X:Xx.=.8.;.8.8.8.8.w.@.n q.&X!.5.S.`.F.V.",
"G v ; ; ; ; ; % % % O O X .     O O O : 1 < 3 Y Q Y I Y h.l.m.m.z.z.[ 2 * < I L I R j.-XM.x.x.x.8.x.v.j.q.q.q.w.H.&XZ.g M B.F.F.",
"8.3.>.>.6.a.G.U.a.v.y.8.8.1.>.F o.n v m m T R R Q < * _ m.-X-Xz.'.z._ < * ! < < < ! j.M.v.j.v.8.q.a.q.q.a.v.i.4.J.`.B.M g M M M ",
"G.U.U.U.R.^./.XXXX~.|.}.XX/./.~.).J._.1X:Xj.~ ! 7 ! Q 3 < R / X.e.C 6 * 3 , , 1 = ~ =.j.+.O.q.v.q.a.c.i.q.q.i.C.B.(.,.8 N B g N ",
"~.~.R.~.~.T.R.~.U.~.~.U.p.r.t.q.~.~.~.^.^.n.8.~ ~ ~ 1 1 1 1 1 = 2 6 6 6 1 = 7 1 1 m =.8.@.8.c.U.v.C.J.G.G.G.H.H.H.).B . N ,.M M ",
"{.XX/.~.~.~.~.~.U.R.~.T.c.r.a.c.~.oX)._.^.,Xv.^ =.~ m m ~ v m 1 x.n.$X}.j.^ ~ ^ ^ m ^ w.>.r.~././.W.Y.G.C.q.u.C.!.!.j . K K.,.M ",
"~.}.}.XXXXOXXXXX}.XX<X+X|.{.|.XX/./.<X X<X).i.^ G v n @.^ n v ^ 6XzXMXdX).w.^ ^ ^ n ^ >.n 2.R.+X X X/.Q.P.H.P.W.%XK.f q B.0XZ.N ",
"~.~./.XXXXXXXX|.<XXXXX1X<X<X<XXX%X=X&XJXlXW.:.b D j k n s O n B.wX#X*X%X0X!.V.V ( V ( n f @.Y.%X|. X X@X X%XeXsXeXu.a j (.kXK.b ",
"XXXXXXoXXXXX~.~.c.c.p.Y.<XiXyXqXaX*X*XSX0XS.H N j j j q O f B.sXSXaX*XsXJXJXK.( ^ V B b 9 b W.eX%X%X*X%X@X=X X+X%XK e :.0XsXC.a ",
"tXtXtXiXyXtXtXqXY.Y.~.XXfXMXMXhXbXaX*X&XS.J D J u l g f B K.JXHXSXBX*X*XkXlXB.V ( V V V p :.(.aX*XpXpXwX@X|.E.P.+Xk e L.bXeX4.e ",
"iXfXMXmXVXCXmXmXVXCXFXFXmXhXhXhXaXSX*XV.M M D M M M l N K.JXSXJXsXBXDXJXJX&XF.B ( V V V l 7.0XjX*XpXaXaXaXeXeXeX%Xh a %XFXeX4.% ",
"xXzXzXzXzXnXnXDXNXnXxXNXNXxXvXDXHX`.K M N N H H o l 0.&XbXFXFXDXbXbXaXvXbXeXA.b K l a a b H.kXsXSXsXbXDXaXaXmXjX0X. J SXjXJXf j ",
"xXnXnXnXNXzX*X*XNXcXBXNXmXBXvXFXsXB.M M B M j l l d.%XmXFXDXnXnXnXmXbXbXbXeXA.G D k h t l W.JXjXjXsXbXSXaXbXSXSXC.% K.HXJX=Xt j ",
"$XrXzXcXxXDXCXDXnXxXvXnXmXbXmXSXK.K g J K l r l P.wXDXGXDXnXzXnXvXaXiXyXaX9XA.K D D j e k Q.SXeXaXeXaXvXsXjXSXjXK o &XFXSXS.w j ",
"&.S S G 2.'.$X*XnXzXvXnXNXmXnXmX0.M l J J l N u.bXmXFXSXBXzXnXNXvXiX+X@X%XeX XG.D D H a b Q.jX(.eX+X%X9X%XsXbX%XH 0 H.&XsX4.f j ",
"$X$X$X[.$XzXNXKXvXnXvXvXmXNXmXBXK b b b l k 0.eXFXmXnXvXbXNXDXCXnXvXpXwXeXyXoXP.k D D h D E.0XQ.%X|. X+X XeXsXQ.k k (.W.`.N a l ",
"nXnXcXzXzXzXzXzXxXvXaXxXBXNXvXpXD b b j j 3. XmXmXnXnXNXDXKXCXnXvXvXbXzXyX+Xp.1.D k k D H P.%X=X%X X+X X&XeX%XA.e C.jX0XZ.e 0 :.",
"$X$XzXzXzXzX$X$XzXzXiXiXxXvXiXoXk H b h F Q.bXDXbXmXNXCXCXNXNXxXrXuXrXwXwX@XL.2.u.F D D H C. X X+X|. X|. X9X X3.e (.sX%X:.e e u.",
"AX$XzXzXzXzXxXnXuXuXrX3XeXaXwX].k J D h y.aXGXmXNXDXNXnXzXzXzXxXiXeX#X X*XiXiXwX@X6.D G D 4.Q.+X X|.|.|.Q.+XY.D k  XS.A.b k l H.",
"$X$X#X$X3X3X#X$XrXrX3X+XwXiX*XL.H H D h k F E.tXiXrXwX3X3X5X5XzXrXrX*X+XOX#X#X%XL.6.K F H 1.2.u.L.R.|.OX XE.p.u.P.P.P.7.j e K W.",
"$XOX$X$XOX.X.X}.{.{.R.E.~.|.L.6.k b D :.6.A.Q..XwX+X$XOX$XOXOX.X.X.X.X].R.R.E.E.u.3.F G G k D D 2.y.p.I.Q.|.|.|.P.Q.E.4.k h 4.W.",
"[.}.}..X{.].].].E.[.E.E.~.E.p.1.D H :.0.E.(. XQ.|.|..X.X.X{.].].T.T.I.n.I.b.b.c.R.E.E.E.A.u.y.u.1.F F F F 2.y.y.p.E.C.D e h :.9.",
"}.[.[.}.].].T.[.{.{.|.].|.L.y.1.4.7.0.0.P. X&X%X|.@X@X#X$XOXOX$X{.].T.].R.R.R.|.R.R./.+X.XE.P.|.R.I.y.2.2.2.6.y.y.A.6.h & k H D ",
"'.[.[.[.].].].[.|.E.].].E.p.3.D V.B.B.K.K.(.&XeXeXeXeXeX+X3XwXeX#X}.{..XOX.XOXrX.X|. X@X@X/.Q.@X|.{.T.L.b.s.b.L.u.s.K h r K 2.F ",
"'.[.[.[.{.{.{.{.OX{.{.|.|.p.2.2.5.V.K.K.!.(.&X%XeXyXiXiX9X+X+XrX3XOX.X#XOX[.T.{.#XOX.X%X9X X.X|.I.b.s.s.y.y.2.2.d.d.F h D 9.u.6.",
"}..X[.$X#X#XrX#XrXwXwXiXyX@X{.|.F.Z.Z.K.K.!.!.K.Q.&XyXaXeX*X*X#X3XOX$X3X.Xd.F 1.1.F 1.y.E.R.Y.L.|..X{.T.L.p.p.y.p.F e h H 6.9.2.",
"$X$X$XrXzXzXxXxXxXuXiXnXnXxXpXsX`.!.B.B.B.K.S.0.0.P.eXhXvXiXiXzX#XOX$XrX}.&.> & & # h 3.Q.<X+X|.R.T.R.T.T.T.E.E.R.1.h k F 2.2.K "
};
